<?xml version="1.0" encoding="UTF-8" standalone="no"?>
<!-- Created with Inkscape (http://www.inkscape.org/) -->

<svg
   xmlns:dc="http://purl.org/dc/elements/1.1/"
   xmlns:cc="http://creativecommons.org/ns#"
   xmlns:rdf="http://www.w3.org/1999/02/22-rdf-syntax-ns#"
   xmlns:svg="http://www.w3.org/2000/svg"
   xmlns="http://www.w3.org/2000/svg"
   xmlns:sodipodi="http://sodipodi.sourceforge.net/DTD/sodipodi-0.dtd"
   xmlns:inkscape="http://www.inkscape.org/namespaces/inkscape"
   width="223.56799"
   height="58.608002"
   viewBox="0 0 59.152365 15.506699"
   version="1.1"
   id="svg2332"
   inkscape:version="0.92.0 r15299"
   sodipodi:docname="3m scott.svg">
  <defs
     id="defs2326" />
  <sodipodi:namedview
     id="base"
     pagecolor="#ffffff"
     bordercolor="#666666"
     borderopacity="1.0"
     inkscape:pageopacity="0.0"
     inkscape:pageshadow="2"
     inkscape:zoom="4.0484186"
     inkscape:cx="158.36941"
     inkscape:cy="28.304"
     inkscape:document-units="mm"
     inkscape:current-layer="layer1"
     showgrid="false"
     inkscape:window-width="1280"
     inkscape:window-height="744"
     inkscape:window-x="-4"
     inkscape:window-y="-4"
     inkscape:window-maximized="1"
     fit-margin-top="0"
     fit-margin-left="0"
     fit-margin-right="0"
     fit-margin-bottom="0"
     units="px" />
  <metadata
     id="metadata2329">
    <rdf:RDF>
      <cc:Work
         rdf:about="">
        <dc:format>image/svg+xml</dc:format>
        <dc:type
           rdf:resource="http://purl.org/dc/dcmitype/StillImage" />
        <dc:title></dc:title>
      </cc:Work>
    </rdf:RDF>
  </metadata>
  <g
     inkscape:label="Layer 1"
     inkscape:groupmode="layer"
     id="layer1"
     transform="translate(76.180647,-249.67255)">
    <g
       id="g2405"
       transform="translate(0.2645828,-0.26457166)">
      <path
         id="path2336"
         d="m -67.914075,258.38869 c -0.336743,-0.69578 -0.81051,-1.00021 -1.077125,-1.0963 0.559407,-0.24895 0.852629,-0.58644 1.077125,-1.25874 z m 6.637365,-5.50487 -1.356558,5.51791 -1.36076,-5.51791 h -3.928881 v 2.03769 c -0.477644,-1.78303 -2.229116,-2.23062 -3.794119,-2.25594 -1.908317,-0.0248 -4.022385,0.80222 -4.096067,3.32499 h 2.639542 c 0,-0.7615 0.697184,-1.19778 1.355912,-1.1869 0.808462,-0.007 1.180538,0.33847 1.199174,0.87569 -0.02779,0.46654 -0.303025,0.79133 -1.192172,0.79133 h -0.888394 v 1.83108 h 0.805985 c 0.457609,0 1.094576,0.24862 1.120214,0.901 0.03049,0.77679 -0.509962,1.11849 -1.174937,1.12516 -1.186464,-0.0442 -1.493044,-0.95604 -1.493044,-1.74037 h -2.739832 c 0.01196,0.5286 -0.0053,3.97132 4.288246,3.94601 2.056651,0.0193 3.553573,-0.84595 3.976171,-2.03834 v 1.82752 h 2.64202 v -5.95278 l 1.460727,5.95278 h 2.361077 l 1.466005,-5.94675 v 5.95214 h 2.69642 v -9.44431 z"
         inkscape:connector-curvature="0"
         style="fill:#ee1111;fill-rule:evenodd;stroke-width:0.26458332" />
      <path
         id="path2340"
         d="m -47.600279,256.033 0.825593,-2.44661 c 0.247332,-0.70042 1.096729,-0.70085 1.096729,-0.70085 h 4.24451 l -0.315738,0.99407 h -3.073665 c -0.256381,0 -0.466442,0.17818 -0.517072,0.34289 -0.01572,0.0516 -0.510609,1.52256 -0.510609,1.52256 -0.06,0.17397 -0.06625,0.28934 -0.295593,0.28837 -0.229018,-4.2e-4 -1.454155,-4.2e-4 -1.454155,-4.2e-4"
         inkscape:connector-curvature="0"
         style="fill:#ee1111;fill-rule:evenodd;stroke-width:0.26458332" />
      <path
         id="path2342"
         d="m -41.856799,254.24954 -0.82559,2.44704 c -0.247333,0.70041 -1.096838,0.70041 -1.096838,0.70041 h -4.244404 l 0.315415,-0.99396 h 3.073988 c 0.256058,0 0.466441,-0.17817 0.517072,-0.34299 0.01572,-0.0516 0.510178,-1.52245 0.510178,-1.52245 0.06043,-0.17398 0.06668,-0.28902 0.296023,-0.28838 0.229018,3.2e-4 1.454156,3.2e-4 1.454156,3.2e-4"
         inkscape:connector-curvature="0"
         style="fill:#ee1111;fill-rule:evenodd;stroke-width:0.26458332" />
      <g
         id="g2392">
        <polyline
           style="fill:#000000;fill-rule:evenodd"
           points="221.006 10.538 206.281 10.538 205.117 14.122 210.361 14.122 205.98 27.581 210.468 27.581 214.847 14.095 220.427 14.095 221.568 10.538 221.006 10.538"
           id="polyline2334"
           transform="matrix(0.26458333,0,0,0.26458333,-76.180647,250.09799)" />
        <polygon
           style="fill:#000000;fill-rule:evenodd"
           points="89.47,57 89.47,0.392 88.815,0.392 88.815,57 "
           id="polygon2338"
           transform="matrix(0.26458333,0,0,0.26458333,-76.180647,250.09799)" />
        <path
           style="fill:#000000;fill-rule:evenodd;stroke-width:0.26458332"
           inkscape:connector-curvature="0"
           d="m -39.093592,253.96644 c -0.129375,0.0796 -0.218463,0.19713 -0.27814,0.38015 -0.01789,0.0558 -0.02596,0.10277 -0.02596,0.14037 5.29e-4,0.0375 0.0074,0.0644 0.01939,0.0866 0.01712,0.0322 0.04729,0.0596 0.107294,0.0827 0.05925,0.0224 0.14618,0.0361 0.258427,0.0361 h 1.26607 c 0.396746,7.4e-4 0.699339,0.0457 0.917263,0.16912 0.108371,0.0617 0.19498,0.14586 0.251103,0.25003 0.05677,0.10449 0.08284,0.22654 0.08284,0.36302 -5.29e-4,0.16374 -0.03695,0.35032 -0.106,0.56501 -0.151135,0.46957 -0.397714,0.81676 -0.749538,1.03953 -0.351716,0.22342 -0.799306,0.32123 -1.347833,0.32123 h -2.675307 l 0.310028,-0.96089 h 2.462122 c 0.246579,2.2e-4 0.4268,-0.0292 0.550249,-0.0937 0.06205,-0.0319 0.111495,-0.0722 0.153614,-0.12442 0.0418,-0.053 0.07648,-0.11936 0.103844,-0.20413 0.02392,-0.0737 0.03393,-0.13261 0.03393,-0.17656 -2.65e-4,-0.0423 -0.0087,-0.0694 -0.02101,-0.0901 -0.0098,-0.0155 -0.02241,-0.0288 -0.04266,-0.0421 -0.03059,-0.0199 -0.07864,-0.0378 -0.14564,-0.0498 -0.06625,-0.0115 -0.150489,-0.0172 -0.250026,-0.0172 h -1.126892 c -0.413874,-6.4e-4 -0.729932,-0.0561 -0.955291,-0.19175 -0.112678,-0.0681 -0.201118,-0.15781 -0.258966,-0.26758 -0.05817,-0.10945 -0.08521,-0.23646 -0.08521,-0.37671 0,-0.15749 0.03339,-0.33254 0.09684,-0.52892 0.15566,-0.48433 0.404395,-0.83895 0.758587,-1.06592 0.35355,-0.22719 0.803185,-0.32544 1.354836,-0.32544 h 2.631139 l -0.310351,0.96143 h -2.430235 c -0.240224,0 -0.419042,0.0409 -0.548527,0.1199 z m 4.251728,1.98943 c 0,0.0992 0.0154,0.1771 0.04244,0.23775 0.04126,0.0906 0.106214,0.15048 0.219538,0.19605 0.112572,0.0449 0.272865,0.0678 0.478293,0.0674 h 1.700302 l -0.304427,0.94311 h -1.683067 c -0.27771,0 -0.525042,-0.01 -0.751906,-0.0659 -0.226219,-0.0555 -0.431755,-0.15997 -0.611331,-0.3417 -0.111815,-0.11225 -0.196056,-0.24518 -0.251425,-0.39556 -0.05548,-0.15049 -0.08208,-0.31811 -0.08208,-0.50124 2.65e-4,-0.26683 0.05612,-0.56737 0.164817,-0.90379 0.250777,-0.77647 0.609928,-1.35559 1.1005,-1.73963 0.490355,-0.38468 1.107287,-0.56748 1.852946,-0.56705 h 1.719479 l -0.300871,0.93116 h -1.638794 c -0.191963,0 -0.35958,0.0274 -0.50867,0.0831 -0.223739,0.0839 -0.408916,0.22978 -0.57481,0.45664 -0.165139,0.22665 -0.307874,0.5342 -0.435956,0.93008 -0.09081,0.28138 -0.135409,0.50404 -0.134977,0.66961 z m 7.582206,-2.8287 c 0.15566,0.11257 0.274588,0.25713 0.352039,0.4297 0.07789,0.17182 0.114726,0.37068 0.114726,0.59345 0,0.29527 -0.06453,0.63481 -0.189378,1.02165 -0.25078,0.77754 -0.622533,1.36044 -1.136049,1.74695 -0.512763,0.38715 -1.161148,0.57233 -1.94785,0.57201 -0.591616,-3.2e-4 -1.04136,-0.10029 -1.352465,-0.32479 -0.154906,-0.11225 -0.272865,-0.2567 -0.349993,-0.42895 -0.0767,-0.17214 -0.113218,-0.37068 -0.113218,-0.5941 0,-0.30755 0.0683,-0.66325 0.200257,-1.07141 0.244102,-0.7573 0.617578,-1.32823 1.131094,-1.70774 0.512763,-0.3794 1.159857,-0.56328 1.937078,-0.56285 0.59054,3.2e-4 1.041255,0.10104 1.353759,0.32608 z m -3.349437,2.78087 c 0,0.11688 0.01648,0.21437 0.0474,0.29365 0.04653,0.11893 0.12065,0.20026 0.238715,0.26026 0.117956,0.0593 0.283419,0.0919 0.498112,0.0915 0.402992,-3.2e-4 0.721852,-0.11429 0.986314,-0.34719 0.264782,-0.23322 0.476242,-0.59334 0.637183,-1.09253 0.09361,-0.28999 0.139607,-0.53312 0.139607,-0.72519 0,-0.11785 -0.01722,-0.21609 -0.04815,-0.29678 -0.04762,-0.12065 -0.123344,-0.20446 -0.2427,-0.26543 -0.119573,-0.0608 -0.285358,-0.0944 -0.499729,-0.094 -0.393189,6.3e-4 -0.710864,0.11397 -0.975326,0.34331 -0.264461,0.22902 -0.475599,0.58009 -0.630504,1.06021 -0.101151,0.31219 -0.150919,0.57072 -0.150919,0.77227 z"
           id="path2344" />
        <polyline
           style="fill:#000000;fill-rule:evenodd"
           points="204.428 10.538 189.35 10.538 188.209 14.122 193.782 14.122 189.402 27.581 193.89 27.581 198.27 14.095 203.287 14.095 204.428 10.538"
           id="polyline2346"
           transform="matrix(0.26458333,0,0,0.26458333,-76.180647,250.09799)" />
        <polyline
           style="fill:#000000;fill-rule:evenodd"
           points="106.209 46.285 106.209 36.734 112.015 36.734 112.015 37.96 107.53 37.96 107.53 41.031 111.598 41.031 111.598 42.271 107.53 42.271 107.53 46.285 106.209 46.285"
           id="polyline2348"
           transform="matrix(0.26458333,0,0,0.26458333,-76.180647,250.09799)" />
        <path
           style="fill:#000000;fill-rule:evenodd;stroke-width:0.26458332"
           inkscape:connector-curvature="0"
           d="m -46.183179,262.34429 h 0.331357 v -1.71442 h -0.331357 z m -0.07476,-2.36313 c 0,-0.0688 0.02305,-0.12646 0.06948,-0.17278 0.04621,-0.0464 0.102658,-0.0695 0.169124,-0.0695 0.06884,0 0.126574,0.0231 0.173003,0.0695 0.04632,0.0463 0.06937,0.10395 0.06937,0.17278 0,0.0667 -0.02305,0.12302 -0.06937,0.16945 -0.04643,0.0462 -0.104166,0.0695 -0.173003,0.0695 -0.06647,0 -0.122912,-0.0233 -0.169124,-0.0695 -0.04643,-0.0464 -0.06948,-0.10277 -0.06948,-0.16945 z m 1.831726,0.98729 c -0.04988,-0.007 -0.09857,-0.0107 -0.146182,-0.0107 -0.140147,0 -0.25358,0.0409 -0.340297,0.12302 -0.08682,0.082 -0.13013,0.21685 -0.13013,0.4045 v 0.85899 h -0.335018 v -1.71442 h 0.328017 v 0.29937 c 0.03092,-0.0665 0.067,-0.12055 0.108585,-0.16224 0.04158,-0.0414 0.08489,-0.0748 0.13013,-0.0996 0.04503,-0.025 0.09146,-0.0421 0.139071,-0.0517 0.04751,-0.009 0.09264,-0.0142 0.135408,-0.0142 0.02371,0 0.04578,10e-4 0.06593,0.003 0.02014,0.002 0.03501,0.005 0.04449,0.007 v 0.35635 m 1.454264,0.34213 c -0.0024,-0.0593 -0.01357,-0.1157 -0.03383,-0.16924 -0.02014,-0.0533 -0.04987,-0.0998 -0.08898,-0.13896 -0.03921,-0.0392 -0.08747,-0.0708 -0.144457,-0.0944 -0.05698,-0.0238 -0.124849,-0.0359 -0.203271,-0.0359 -0.06884,0 -0.131855,0.0132 -0.188947,0.0393 -0.05699,0.0262 -0.105569,0.0594 -0.145965,0.0998 -0.0404,0.0404 -0.0725,0.0874 -0.09631,0.1408 -0.02371,0.0534 -0.03673,0.10632 -0.03921,0.15857 z m 0.317243,0.5775 c -0.02381,0.0712 -0.05699,0.13789 -0.09986,0.1995 -0.04255,0.0618 -0.09631,0.11591 -0.160292,0.16224 -0.0642,0.0463 -0.137885,0.0826 -0.221049,0.10869 -0.08305,0.0262 -0.176988,0.0392 -0.28148,0.0392 -0.116448,0 -0.225787,-0.0207 -0.328017,-0.0624 -0.102013,-0.0416 -0.191746,-0.10148 -0.268986,-0.1799 -0.07724,-0.0784 -0.138422,-0.17473 -0.18356,-0.28881 -0.04524,-0.11407 -0.06765,-0.24227 -0.06765,-0.38489 0,-0.13778 0.02241,-0.26252 0.06765,-0.37423 0.04514,-0.11171 0.106323,-0.20672 0.18356,-0.28514 0.07724,-0.0784 0.165034,-0.13908 0.263708,-0.18163 0.09857,-0.0429 0.201334,-0.0643 0.308197,-0.0643 0.130667,0 0.247115,0.0226 0.349345,0.0677 0.102338,0.0453 0.187762,0.10751 0.256704,0.18723 0.06884,0.0796 0.121621,0.17408 0.15857,0.28342 0.03684,0.10923 0.05526,0.22923 0.05526,0.3599 0,0.0214 -5.29e-4,0.0416 -0.0019,0.0606 -0.0011,0.019 -0.003,0.0345 -0.0053,0.0462 h -1.290201 c 0,0.0784 0.01357,0.14974 0.04093,0.21394 0.02725,0.064 0.06345,0.11882 0.108694,0.16385 0.04503,0.0452 0.09803,0.0804 0.158676,0.10513 0.06054,0.025 0.125283,0.0375 0.194225,0.0375 0.130667,0 0.232143,-0.0303 0.30475,-0.0909 0.0725,-0.0605 0.125174,-0.13594 0.158567,-0.22632 z m 1.596782,-1.5147 c 0,0.0357 0.0058,0.07 0.01778,0.10331 0.01175,0.0333 0.02725,0.0646 0.04621,0.0945 0.01908,0.0296 0.03975,0.0575 0.06237,0.0837 0.02262,0.0263 0.0447,0.0499 0.06593,0.0713 l 0.07842,0.0855 0.171173,-0.12841 c 0.07595,-0.0546 0.126468,-0.10686 0.151458,-0.15673 0.025,-0.0499 0.03738,-0.10212 0.03738,-0.15685 0,-0.0832 -0.03038,-0.15512 -0.09081,-0.21555 -0.06065,-0.0607 -0.137348,-0.0909 -0.229989,-0.0909 -0.03555,0 -0.07196,0.006 -0.1088,0.0195 -0.03684,0.0131 -0.06991,0.0334 -0.09964,0.0607 -0.02973,0.0274 -0.05408,0.0601 -0.07304,0.098 -0.01908,0.0381 -0.02844,0.082 -0.02844,0.13196 z m 0.256489,1.69298 c 0.09738,0 0.182915,-0.0275 0.256704,-0.0821 0.07347,-0.0546 0.144889,-0.12001 0.213723,-0.19606 l 0.01087,-0.0142 -0.513299,-0.53829 -0.128408,0.0963 c -0.06194,0.0476 -0.112892,0.10105 -0.153075,0.16051 -0.04061,0.0594 -0.06076,0.13304 -0.06076,0.22094 0,0.0428 0.0089,0.0849 0.02671,0.12647 0.01789,0.0417 0.04288,0.0797 0.07498,0.11408 0.03199,0.0345 0.0712,0.0618 0.117525,0.0821 0.04632,0.0202 0.09803,0.0303 0.155014,0.0303 z m 0.705803,-0.057 c -0.104709,0.11645 -0.213508,0.20833 -0.326186,0.2762 -0.113001,0.0675 -0.240546,0.10147 -0.383173,0.10147 -0.118925,0 -0.223956,-0.0184 -0.315521,-0.0553 -0.09146,-0.0368 -0.168047,-0.0854 -0.229774,-0.14607 -0.06183,-0.0607 -0.10826,-0.12948 -0.139071,-0.20672 -0.03081,-0.0772 -0.04632,-0.1562 -0.04632,-0.23699 0,-0.0808 0.01066,-0.15394 0.0321,-0.21922 0.02143,-0.0654 0.05171,-0.12603 0.09092,-0.18194 0.03921,-0.0558 0.08596,-0.10794 0.140792,-0.15663 0.05472,-0.0488 0.115266,-0.0981 0.181729,-0.14801 l 0.03555,-0.0285 -0.04611,-0.0499 c -0.02865,-0.0308 -0.06075,-0.0658 -0.0963,-0.10513 -0.03566,-0.0391 -0.06905,-0.0825 -0.09986,-0.13013 -0.03081,-0.0474 -0.05645,-0.0985 -0.07659,-0.15329 -0.02014,-0.0546 -0.03027,-0.11279 -0.03027,-0.17452 0,-0.10212 0.01908,-0.19239 0.05699,-0.27081 0.03792,-0.0784 0.08844,-0.14446 0.151458,-0.19789 0.06302,-0.0535 0.133038,-0.0938 0.210277,-0.12119 0.07724,-0.0272 0.15512,-0.0409 0.233434,-0.0409 0.09501,0 0.183563,0.0142 0.265647,0.0427 0.08198,0.0285 0.152535,0.0695 0.211892,0.12291 0.05946,0.0536 0.106431,0.11839 0.140793,0.19444 0.03436,0.0759 0.05182,0.16148 0.05182,0.25649 0,0.0618 -0.01013,0.11935 -0.03038,0.173 -0.02014,0.0534 -0.04686,0.1032 -0.08015,0.14963 -0.03318,0.0462 -0.0712,0.0891 -0.113972,0.1283 -0.04287,0.0392 -0.08693,0.0755 -0.131961,0.10869 l -0.128296,0.0962 0.470535,0.48831 0.331356,-0.37057 0.231606,0.20306 -0.34213,0.39556 0.57395,0.59172 h -0.474091 z m 3.211229,-1.5077 c -0.007,-0.0452 -0.02262,-0.0932 -0.04622,-0.14445 -0.02381,-0.051 -0.05709,-0.0979 -0.09986,-0.14069 -0.04287,-0.0429 -0.09631,-0.0778 -0.160401,-0.10525 -0.0641,-0.0271 -0.140147,-0.0408 -0.228155,-0.0408 -0.07131,0 -0.136594,0.0106 -0.19595,0.032 -0.05946,0.0214 -0.111062,0.0511 -0.15512,0.0891 -0.04406,0.0379 -0.07778,0.0825 -0.101585,0.13368 -0.02381,0.0511 -0.03555,0.10633 -0.03555,0.16557 0,0.0905 0.02715,0.16816 0.08198,0.23365 0.05472,0.0652 0.135517,0.10988 0.242376,0.13358 l 0.377786,0.082 c 0.21146,0.0476 0.373583,0.13304 0.486479,0.2566 0.112786,0.12366 0.169447,0.27447 0.169447,0.45276 0,0.0975 -0.02024,0.19131 -0.06075,0.28158 -0.0404,0.0902 -0.09857,0.16978 -0.17462,0.23861 -0.07605,0.0691 -0.16751,0.12421 -0.274587,0.16579 -0.106754,0.0417 -0.22805,0.0624 -0.36335,0.0624 -0.152214,0 -0.284604,-0.0226 -0.397391,-0.0677 -0.112895,-0.0452 -0.207906,-0.10342 -0.285252,-0.17462 -0.07724,-0.0713 -0.137131,-0.15157 -0.180004,-0.24065 -0.04277,-0.0891 -0.06991,-0.17882 -0.08187,-0.26899 l 0.335018,-0.10708 c 0.007,0.0714 0.02434,0.13972 0.05149,0.205 0.02747,0.0654 0.06679,0.12291 0.11774,0.17279 0.05106,0.05 0.112895,0.0897 0.185285,0.11957 0.0726,0.0296 0.156305,0.0445 0.251425,0.0445 0.17322,0 0.303456,-0.0392 0.390282,-0.11774 0.08672,-0.0784 0.129913,-0.17343 0.129913,-0.28503 0,-0.0903 -0.03081,-0.17161 -0.09253,-0.24421 -0.06194,-0.0725 -0.156736,-0.12162 -0.285252,-0.1478 l -0.360011,-0.0784 c -0.180327,-0.0404 -0.32834,-0.11817 -0.443603,-0.23344 -0.115263,-0.11526 -0.172789,-0.26801 -0.172789,-0.45814 0,-0.0998 0.02143,-0.19466 0.06399,-0.28515 0.04288,-0.0902 0.101584,-0.16977 0.176451,-0.23861 0.07498,-0.069 0.163417,-0.1242 0.265538,-0.16578 0.102121,-0.0417 0.211569,-0.0624 0.328017,-0.0624 0.14241,0 0.264245,0.0195 0.365289,0.0587 0.101045,0.0392 0.185286,0.0897 0.253043,0.15156 0.06765,0.0618 0.120541,0.12949 0.158676,0.20306 0.03792,0.0737 0.0641,0.145 0.07832,0.21394 l -0.31369,0.11052 m 1.197557,1.61445 c 0.06884,0 0.133792,-0.009 0.194226,-0.0267 0.06065,-0.0178 0.112895,-0.0463 0.156845,-0.0855 0.04395,-0.0392 0.07896,-0.0915 0.105137,-0.15673 0.02627,-0.0654 0.03921,-0.14435 0.03921,-0.23699 v -0.0785 l -0.52375,0.0785 c -0.07142,0.0117 -0.130882,0.0385 -0.178388,0.0801 -0.04761,0.0416 -0.07121,0.10029 -0.07121,0.17634 0,0.0643 0.0249,0.12184 0.07487,0.17301 0.04988,0.051 0.117525,0.0765 0.203057,0.0765 z m -0.620053,-0.23171 c 0,-0.0759 0.01304,-0.14424 0.03921,-0.20489 0.02596,-0.0604 0.06226,-0.11214 0.108585,-0.15501 0.04632,-0.0428 0.10169,-0.0772 0.165785,-0.10331 0.0641,-0.0262 0.133038,-0.0451 0.206722,-0.057 l 0.463317,-0.0679 c 0.05224,-0.007 0.08736,-0.0226 0.105137,-0.0462 0.01789,-0.0238 0.02672,-0.0512 0.02672,-0.0821 0,-0.0832 -0.02909,-0.15501 -0.08736,-0.21556 -0.05817,-0.0605 -0.152644,-0.0909 -0.283205,-0.0909 -0.118819,0 -0.210384,0.0327 -0.274479,0.098 -0.0642,0.0654 -0.10223,0.14791 -0.114078,0.24777 l -0.320693,-0.0749 c 0.0094,-0.0809 0.03383,-0.15566 0.07304,-0.22449 0.0391,-0.0691 0.08952,-0.12776 0.151458,-0.17656 0.06183,-0.0486 0.133684,-0.0866 0.215554,-0.11408 0.08198,-0.0273 0.169341,-0.0409 0.261982,-0.0409 0.128299,0 0.23753,0.0174 0.328017,0.0517 0.09016,0.0345 0.163849,0.0802 0.220835,0.13724 0.05709,0.057 0.09867,0.12356 0.124849,0.19961 0.02606,0.0761 0.039,0.15555 0.039,0.23882 v 0.85899 c 0,0.0759 0.0024,0.13659 0.0073,0.18162 0.0047,0.0452 0.0094,0.0784 0.01421,0.0999 h -0.327803 c -0.0047,-0.0214 -0.0089,-0.0498 -0.01259,-0.0856 -0.0035,-0.0357 -0.0052,-0.0842 -0.0052,-0.14607 -0.01929,0.031 -0.04416,0.063 -0.07508,0.0963 -0.03081,0.0334 -0.06884,0.0642 -0.113972,0.0925 -0.04514,0.0286 -0.09803,0.0517 -0.158676,0.0696 -0.06054,0.0179 -0.128945,0.0267 -0.204782,0.0267 -0.08812,0 -0.166971,-0.0142 -0.236993,-0.0428 -0.07023,-0.0285 -0.130127,-0.066 -0.180004,-0.11224 -0.04998,-0.0464 -0.08877,-0.10029 -0.116017,-0.16213 -0.02725,-0.0618 -0.04083,-0.12711 -0.04083,-0.19616 z m 2.373571,-0.95163 v 1.4115 h -0.345575 v -1.4115 h -0.31746 v -0.30292 h 0.31746 v -0.2887 c 0,-0.0949 0.01466,-0.17935 0.04449,-0.25293 0.02952,-0.0737 0.07002,-0.13551 0.121081,-0.1855 0.05117,-0.0498 0.110525,-0.0874 0.178173,-0.11214 0.06765,-0.025 0.140904,-0.0375 0.219218,-0.0375 0.05709,0 0.102767,0.005 0.13724,0.0142 0.03436,0.01 0.05526,0.0167 0.06248,0.0213 v 0.29958 c -0.0096,-0.005 -0.02564,-0.01 -0.04804,-0.0144 -0.02262,-0.005 -0.05537,-0.007 -0.09824,-0.007 -0.02833,0 -0.05871,0.004 -0.09081,0.0125 -0.0321,0.008 -0.06173,0.0232 -0.08919,0.0446 -0.02715,0.0213 -0.04934,0.051 -0.06593,0.089 -0.01659,0.038 -0.02487,0.0868 -0.02487,0.14607 v 0.27092 h 0.413551 v 0.30292 h -0.413551 m 1.87126,0.37779 c -0.0024,-0.0593 -0.01378,-0.1157 -0.03404,-0.16924 -0.02013,-0.0533 -0.04977,-0.0998 -0.08898,-0.13896 -0.03921,-0.0392 -0.08726,-0.0708 -0.144351,-0.0944 -0.05709,-0.0238 -0.124849,-0.0359 -0.203272,-0.0359 -0.06884,0 -0.131855,0.0132 -0.188841,0.0393 -0.05709,0.0262 -0.105783,0.0594 -0.14618,0.0998 -0.0404,0.0404 -0.0725,0.0874 -0.0962,0.1408 -0.02381,0.0534 -0.03684,0.10632 -0.03921,0.15857 z m 0.317029,0.5775 c -0.02381,0.0712 -0.05698,0.13788 -0.09986,0.1995 -0.04255,0.0618 -0.09609,0.11591 -0.160184,0.16223 -0.06431,0.0463 -0.137885,0.0826 -0.221155,0.1087 -0.08295,0.0262 -0.176773,0.0392 -0.281482,0.0392 -0.116448,0 -0.225787,-0.0207 -0.328017,-0.0624 -0.102013,-0.0416 -0.191746,-0.10148 -0.268984,-0.1799 -0.07724,-0.0784 -0.138316,-0.17473 -0.183559,-0.28881 -0.04524,-0.11408 -0.06765,-0.24227 -0.06765,-0.38489 0,-0.13778 0.02241,-0.26252 0.06765,-0.37423 0.04524,-0.11171 0.106322,-0.20672 0.183559,-0.28515 0.07724,-0.0784 0.165032,-0.13907 0.263705,-0.18162 0.09868,-0.0429 0.201444,-0.0643 0.308306,-0.0643 0.130667,0 0.247116,0.0226 0.349345,0.0677 0.10223,0.0453 0.187653,0.10751 0.256704,0.18722 0.06884,0.0796 0.121621,0.17409 0.15857,0.28342 0.03684,0.10924 0.05515,0.22924 0.05515,0.35991 0,0.0214 -5.29e-4,0.0416 -0.0019,0.0606 -0.0011,0.019 -0.0031,0.0345 -0.0053,0.0462 h -1.290201 c 0,0.0784 0.01347,0.14973 0.04093,0.21394 0.02725,0.064 0.06356,0.11882 0.108694,0.16384 0.04513,0.0453 0.09803,0.0804 0.158567,0.10514 0.06065,0.025 0.125283,0.0375 0.194226,0.0375 0.130669,0 0.232145,-0.0303 0.304858,-0.0909 0.07239,-0.0605 0.125174,-0.13595 0.158567,-0.22633 z m 0.833993,-1.25821 h 0.370893 v 0.30292 h -0.370893 v 0.89109 c 0,0.0784 0.01789,0.13734 0.05343,0.17655 0.03587,0.0392 0.09749,0.0587 0.185499,0.0587 0.02143,0 0.04503,-0.001 0.0712,-0.004 0.02606,-0.002 0.04632,-0.006 0.06076,-0.0107 v 0.28515 c -0.01445,0.005 -0.04169,0.0113 -0.08209,0.0195 -0.04039,0.008 -0.08908,0.0125 -0.146071,0.0125 -0.147474,0 -0.263814,-0.0421 -0.349454,-0.12647 -0.08543,-0.0844 -0.12819,-0.2051 -0.12819,-0.36173 v -0.94107 h -0.327912 v -0.30292 h 0.09254 c 0.09275,0 0.159861,-0.025 0.201549,-0.0748 0.04147,-0.0499 0.06226,-0.11289 0.06226,-0.18895 v -0.27792 h 0.306472 v 0.54163"
           id="path2350" />
        <polyline
           style="fill:#000000;fill-rule:evenodd"
           points="174.169 48.993 175.785 45.572 172.997 39.806 174.452 39.806 176.473 44.278 178.412 39.806 179.773 39.806 175.557 48.993 174.169 48.993"
           id="polyline2352"
           transform="matrix(0.26458333,0,0,0.26458333,-76.180647,250.09799)" />
      </g>
    </g>
  </g>
</svg>
