<svg version="1.1" id="Layer_1" xmlns="http://www.w3.org/2000/svg" xmlns:xlink="http://www.w3.org/1999/xlink" x="0px" y="0px" viewBox="0 0 175.8 65" style="enable-background:new 0 0 175.8 65;" xml:space="preserve">
 <style type="text/css">
  .st0{fill:#002A4E;}
 </style>
 <g>
  <path class="st0" d="M76.9,23.9L60.8,62.1h11l2.7-6.8h14.7l2.7,6.8h11.3L87.1,23.9H76.9z M77.6,47.1l4.3-10.7l4.2,10.7H77.6z">
  </path>
  <path class="st0" d="M132.8,42.3c3.4-1.5,5.9-4.1,5.9-8.5v-0.1c0-2.6-0.9-4.6-2.4-6.2c-2.2-2.2-5.6-3.4-10.4-3.4h-19.5v37.9H126
		c9.1,0,14.4-4,14.4-10.5v-0.1C140.3,46.4,137.4,43.8,132.8,42.3 M116.6,32.6h6.9c3.1,0,4.8,1.1,4.8,3.3V36c0,2.2-1.8,3.3-5,3.3
		h-6.6V32.6z M129.8,50.2c0,2.2-1.8,3.5-5,3.5h-8.1v-7h8c3.5,0,5.1,1.4,5.1,3.4V50.2z">
  </path>
  <path class="st0" d="M161.7,38.5c-5.3-1.2-6.6-2-6.6-3.7v-0.1c0-1.4,1.2-2.4,3.8-2.4c3.4,0,7.2,1.2,10.6,3.7l5.3-7.4
		c-4.1-3.3-9.2-5-15.6-5c-9.1,0-14.7,5.1-14.7,12.1v0.1c0,7.8,6.2,10,14.3,11.9c5.2,1.2,6.4,2.1,6.4,3.7v0.1c0,1.6-1.5,2.6-4.4,2.6
		c-4.4,0-8.5-1.6-12.3-4.6l-5.9,7c4.7,4.2,11.1,6.3,17.8,6.3c9.2,0,15.3-4.6,15.3-12.4v-0.1C175.8,43.2,170.4,40.4,161.7,38.5">
  </path>
  <path class="st0" d="M30.3,55.1L30.3,55.1c-0.6,0-1.2-0.2-1.6-0.4c0,0,0,0,0,0c0,0,0,0.1,0,0.1c0.1,0.4,0.3,0.9,0.7,1.3
		c0.4,0.1,1.3,0.3,2-0.2c0.2-0.1,0.4-0.3,0.5-0.6c0.1-0.2,0.2-0.5,0.3-0.9C31.6,55,30.9,55.1,30.3,55.1">
  </path>
  <path class="st0" d="M36.3,41.1c-0.7,1.4-1.7,2.5-3.2,3.2l-0.6,0.3l0-0.6c-0.8,0.6-1.8,1-2.4,1l-0.2,0l-0.1-0.1
		c-0.5-0.4-1.1-1.3-1.3-2.3L28.1,43l-0.3-0.8c-0.5-1.4-0.4-2.8-0.2-3.9c-0.8,1.6-1.5,3.6-1,5.6c0-0.1,0.1-0.1,0.2-0.2l0.7-0.7l0.1,1
		c0.1,1.3,1.1,2.9,1.7,3.5c0.8-0.1,2-0.7,2.6-1.5l0.6-0.9l0.2,1c0,0.3,0.1,0.5,0.1,0.7C34.6,46,35.7,43.8,36.3,41.1">
  </path>
  <path class="st0" d="M33.1,48.7c0.2,0.3,0.4,0.6,0.5,0.8l0.2,0.3L33.6,50c-0.4,0.4-0.4,0.9-0.3,1.2c0.3-0.4,0.7-0.8,0.8-1l0.4-0.4
		l-0.9-1.6C33.5,48.4,33.3,48.6,33.1,48.7">
  </path>
  <path class="st0" d="M34.2,47.8l0.8,1.5l0,0c0,0-0.5,1-0.3,1.9l1.3-1.9l-1.3-2C34.5,47.5,34.4,47.7,34.2,47.8">
  </path>
  <path class="st0" d="M35.2,46.7l1.6,2.8c-0.2,0.3-0.4,0.7-0.3,1.2l0.9-1.4L35.6,46C35.5,46.2,35.4,46.5,35.2,46.7">
  </path>
  <path class="st0" d="M41.1,45.4l0.5-1l0.3,1.1c0.1,0.2,0.1,0.5,0.2,0.6c3-2,2.8-5.4,2.6-6.8c-1,0.8-3.4,2.4-7.9,3.9
		c-0.1,0.3-0.5,1.1-0.1,2.3c0.1-0.2,0.3-0.4,0.6-0.6l0.7-0.8l0,1.1c0,0.9,0.5,2.1,0.8,2.5C39.7,47.2,40.7,46.1,41.1,45.4">
  </path>
  <path class="st0" d="M42.8,47.1l-4.7,1.7l0.3,0.6l-0.5,0.7l5.2-1.8c0-0.1,0.1-0.2,0.2-0.3C43.1,47.8,43,47.5,42.8,47.1
		C42.8,47.2,42.8,47.2,42.8,47.1">
  </path>
  <path class="st0" d="M43.2,46.7c0.4,0.6,1,1.2,1,1.2s-0.4,0.6-0.4,1.2c0.1-0.2,0.7-0.7,1.1-1.1l-1.1-1.7
		C43.6,46.4,43.4,46.6,43.2,46.7">
  </path>
  <path class="st0" d="M44.3,45.8l1.1,1.7l0,0c0,0-0.4,0.7-0.3,1.4l1.1-1.3l-1.6-2.2C44.5,45.5,44.4,45.7,44.3,45.8">
  </path>
  <path class="st0" d="M51.5,50c0,0-2.1-0.5-1.8-2.5L48.1,48c0,0,0,0,0,0c0,2.1,1.7,3.9,3.7,3.9c1.1,0,2.4-0.8,3.2-1.8
		c-0.5,0.1-1,0.2-1.5,0.2C52.8,50.3,52.1,50.2,51.5,50">
  </path>
  <path class="st0" d="M58.5,45.3c0,0,0.2,0.5,0,1.2c0.4-0.3,1-1.1,0.7-2.2C59,44.9,58.5,45.3,58.5,45.3">
  </path>
  <path class="st0" d="M56.9,41.9c-1.2,0.5-1.6,2.1-0.8,2.8c0.9,0.7,1.5,0,1.7-0.1c0.2-0.2,0.2-0.8-0.5-0.9c-0.4-0.1-0.8,0.4-0.8,0.4
		c-0.1-0.9,0.7-2.3,2.4-1.5C58.9,42.6,58.2,41.4,56.9,41.9">
  </path>
  <path class="st0" d="M56.4,45.8c0.2,1.3-1.1,3.2-3.4,3.6c3.9,0.4,5.1-2.8,4.8-3.8C57.9,45.7,57.2,46.1,56.4,45.8">
  </path>
  <polygon class="st0" points="55.1,41.6 52.9,42.4 52.9,45 55.1,44.3 	">
  </polygon>
  <polygon class="st0" points="52.7,45.1 51.2,44.1 47.3,45.5 48.1,46.6 	">
  </polygon>
  <path class="st0" d="M45,44.8l1.6,2.3l0,0c0,0,0,0,0,0l0,0l0,0c-0.2,0.5-0.2,0.9-0.2,1.3l1-1.3l-2.2-2.9
		C45.1,44.4,45.1,44.6,45,44.8">
  </path>
  <path class="st0" d="M25.1,39.7c-0.1-0.3-0.2-0.5-0.3-0.8l-2.6,0.9c0.1,0.3,0.2,0.5,0.4,0.8L25.1,39.7z">
  </path>
  <path class="st0" d="M23,43c-0.8-1.1-1.5-2.7-2-3.9c0,1.9,0.6,3.7,0.9,4.6C22.2,43.4,22.6,43.2,23,43">
  </path>
  <path class="st0" d="M24.4,43.3c-0.1,1.5,1,2.8,3.4,3.8c-0.4-0.6-0.8-1.4-1-2.1c0,0,0,0,0,0l-0.4,0.7L26.1,45
		c-0.3-0.7-0.4-1.4-0.5-2.1L24.4,43.3L24.4,43.3z">
  </path>
  <path class="st0" d="M29.1,48.6c-0.5-0.2-0.9-0.3-1.4-0.5c0.3,0.6,0.5,1.3,0.3,2.1c0.8,0.2,1.5,0.6,1.8,1.1
		c0.1,0.1,0.2,0.3,0.2,0.4c0.3-0.2,0.5-0.5,0.6-0.8c0.2-0.9-0.5-1.9-0.5-1.9l0,0C29.8,48.8,29.5,48.7,29.1,48.6">
  </path>
  <path class="st0" d="M27,50.1c0.5-1-0.3-2-0.8-2.4c-0.1,0.8-0.4,1.8-1.2,2.6c0.6,0,1.2-0.1,1.8-0.1C26.8,50.1,26.9,50.1,27,50.1">
  </path>
  <path class="st0" d="M23.7,44.5c-0.4,1-1.1,3.2,0.3,5.2c1.3-1,1.2-2.9,1.2-3.1C24.4,46,23.9,45.3,23.7,44.5">
  </path>
  <path class="st0" d="M22.2,44.5c-0.1,0.1-0.2,0.1-0.2,0.1l-0.1,0.1c-0.7,0.6-1,1.6-0.8,3.1c0.2,1.1,0.9,1.8,1.8,2.1
		c-1.4-2.2-0.7-4.6-0.2-5.7C22.5,44.3,22.3,44.4,22.2,44.5">
  </path>
  <path class="st0" d="M31.6,51.1c-0.2,0.8-0.8,1.4-1.7,1.8c-0.4,0.3-0.7,0.5-0.9,0.8c0.3,0.2,0.8,0.4,1.4,0.4c0.8,0,1.5-0.4,2.1-1.2
		l0,0c0-1-0.1-2-0.8-2.8C31.7,50.4,31.7,50.8,31.6,51.1">
  </path>
  <path class="st0" d="M27.9,55c-0.2-1,0.3-1.9,1.3-2.7c0.2-0.3,0.1-0.5-0.1-0.7c-0.3-0.5-1.1-0.9-2.2-0.7c-3.8,0.6-6.2-0.5-6.6-3
		c-0.3-1.9,0.2-3,1-3.8c-0.1-0.2-0.1-0.3-0.2-0.6c-0.4-1.2-0.8-2.7-0.8-4.4c0-0.2,0-0.4,0-0.5c-1,1.9-1.6,4.2-1.6,6.6
		c0,9.1,7.8,16.5,17.4,16.5c0.6,0,1.2,0,1.9-0.1C34,60.4,28.4,57.8,27.9,55">
  </path>
  <path class="st0" d="M39.7,12l0,0.9c0.1,1.1,0.3,2.1,0.6,2.9l0.4,0.8c0.5,0.9,1.1,1.5,2,1.9c0.6,0.3,1.2,0.5,1.8,0.7l0.9,0.3
		c2.2,0.6,4.5,0.7,6.2,0.7c0.5,0,1,0,1.6,0c1-0.6,1.9-1,2.9-1.3l1.3-0.3c0.7-0.1,1.3-0.2,1.9-0.2c1.4,0,2.5,0.2,3.1,0.4l0.4,0.2
		l0.5-0.4l3.3-2.8c-3.1-3.4-6.5-5.4-10.1-6.6l-0.8-0.3C52.7,8,49.8,7.7,47,7.7c-2.5,0-4.8,0.2-7,0.6C39.8,9.6,39.7,10.8,39.7,12
		 M41.3,15.6c-0.1,0-0.1,0-0.2,0l-0.1-0.2c-0.3-0.7-0.4-1.6-0.5-2.6l0-0.1c0.1,0,0.2,0,0.2,0c0.1,0,0.2,0,0.2,0c0.1,0,0.3,0,0.4-0.1
		c0.1,0,0.2,0,0.3,0c0.1,0,0.3,0,0.4-0.1c0.1,0,0.2,0,0.3,0c0.1,0,0.3,0,0.4,0c0.1,0,0.2,0,0.4,0c0.1,0,0.3,0,0.4,0
		c0.1,0,0.2,0,0.4,0c0.2,0,0.3,0,0.5,0c0.1,0,0.3,0,0.4,0c0.2,0,0.3,0,0.5,0c0.2,0,0.3,0,0.5,0c0.1,0,0.3,0,0.4,0c0.2,0,0.3,0,0.5,0
		c0.1,0,0.3,0,0.4,0c0.2,0,0.3,0,0.5,0c0.1,0,0.3,0,0.4,0c0.2,0,0.4,0,0.5,0.1c0.1,0,0.3,0,0.4,0.1c0.2,0,0.4,0.1,0.6,0.1
		c0.1,0,0.3,0,0.4,0.1c0.2,0,0.4,0.1,0.6,0.1c0.1,0,0.3,0.1,0.4,0.1c0.2,0,0.5,0.1,0.7,0.2c0.1,0,0.2,0.1,0.4,0.1
		c0.3,0.1,0.7,0.2,1,0.3c-1.6,0.4-3.4,1.1-5.2,2.2c-0.3,0-0.5-0.1-0.8-0.1c-0.1,0-0.1,0-0.2,0c-0.2,0-0.5,0-0.7-0.1c0,0,0,0,0,0
		c-0.2,0-0.5,0-0.7,0c-0.1,0-0.1,0-0.2,0c-0.2,0-0.5,0-0.7,0c0,0,0,0,0,0c0,0,0,0,0,0c-0.2,0-0.4,0-0.6,0c-0.1,0-0.1,0-0.2,0
		c-0.1,0-0.3,0-0.4,0c-0.1,0-0.1,0-0.2,0c-0.1,0-0.3,0-0.4,0c-0.1,0-0.1,0-0.2,0c-0.2,0-0.3,0-0.5,0c0,0,0,0,0,0c-0.2,0-0.3,0-0.5,0
		c-0.1,0-0.1,0-0.2,0C41.6,15.6,41.4,15.6,41.3,15.6 M44.9,18.5l-0.3-0.1C44,18.2,43.5,18,43,17.7c-0.6-0.3-1-0.7-1.4-1.3
		c0.1,0,0.2,0,0.3,0c0,0,0.1,0,0.1,0c0.2,0,0.4,0,0.7-0.1c0.1,0,0.1,0,0.2,0c0.2,0,0.4,0,0.6,0c0.1,0,0.1,0,0.2,0c0.2,0,0.5,0,0.7,0
		c0.1,0,0.1,0,0.2,0c0.2,0,0.3,0,0.5,0c0.2,0,0.5,0,0.7,0c0.1,0,0.2,0,0.3,0c0.3,0,0.7,0,1.1,0.1C46.3,17,45.5,17.7,44.9,18.5
		 M52.7,19.3c-0.4,0-0.9,0-1.3,0c-1.4,0-3.6-0.1-5.6-0.6c0.7-0.9,1.6-1.6,2.5-2.2c2.1,0.3,4.3,0.8,6.4,1.8
		C54.1,18.6,53.4,18.9,52.7,19.3 M56,9.9L56,9.9c3.5,1.2,6.6,3.1,9.2,5.8l-2.5,2.1l-0.3,0.1c-2-2-4.2-3.4-6.4-4.3L56,13.4
		C55.4,12.3,55.7,11,56,9.9 M61,17.7c-0.6-0.1-1.2-0.1-1.9-0.1c-0.7,0-1.4,0.1-2.1,0.2l0,0l0,0L56,18c-2.1-1.1-4.4-1.8-6.5-2.2
		c2-1.1,4.2-1.7,5.5-1.8C57.1,14.9,59.1,16,61,17.7 M40.8,9.1C43,8.7,45,8.6,47,8.6c3,0,5.7,0.4,8.2,1.1c-0.3,1-0.6,2.2-0.3,3.4
		c-0.4-0.1-0.7-0.3-1.1-0.4c0,0-0.1,0-0.1,0c-0.3-0.1-0.7-0.2-1-0.3c0,0-0.1,0-0.1,0c-0.3-0.1-0.7-0.2-1-0.2c-0.1,0-0.1,0-0.2,0
		c-0.3-0.1-0.7-0.1-1-0.2c-0.1,0-0.1,0-0.2,0c-0.3-0.1-0.6-0.1-1-0.1c-0.1,0-0.1,0-0.2,0c-0.3,0-0.6-0.1-0.9-0.1c0,0-0.1,0-0.1,0
		c-0.3,0-0.6-0.1-1-0.1c0,0,0,0-0.1,0c-0.3,0-0.6,0-1,0c0,0,0,0,0,0c-0.2,0-0.4,0-0.5,0c-0.1,0-0.2,0-0.2,0c-0.1,0-0.3,0-0.4,0
		c-0.2,0-0.3,0-0.5,0c-0.1,0-0.3,0-0.4,0c-0.2,0-0.3,0-0.5,0c-0.1,0-0.2,0-0.4,0c-0.2,0-0.3,0-0.5,0c-0.1,0-0.2,0-0.3,0
		c-0.2,0-0.3,0-0.5,0.1c-0.1,0-0.2,0-0.3,0c-0.2,0-0.3,0-0.4,0.1c-0.1,0-0.2,0-0.3,0c-0.1,0-0.2,0-0.3,0.1C40.6,11,40.6,10,40.8,9.1
		">
  </path>
  <path class="st0" d="M59.8,41.1c-0.6-0.7-1.4-1-2.4-1c-0.4,0-0.8,0.1-1.1,0.2c-0.2,0.1-0.4,0.2-0.7,0.4l-1.5-1l-0.3-0.2l-0.4,0.1
		l-2.8,0.8L50,40.5v0.7v1.6l-2.9,1l-0.8-1.1c0.4-1.9,0.1-3.6-0.1-4.3L46.1,38c0,0,0,0,0,0c0.5-0.4,1.2-1,2.1-1.7
		c1.7-1.4,4-3.2,6.3-5.1c2.3-1.8,4.6-3.6,6.4-5c0.9-0.7,1.6-1.2,2.1-1.6c0.1-0.1,0.2-0.2,0.3-0.2c0,0,0,0,0,0
		c0.2-0.1,0.3-0.2,0.4-0.3c0,0,0,0,0.1,0c0.7-0.5,1.3-0.7,1.8-0.7c0,0,0,0,0,0c0.5,0,0.9,0.4,1,0.8c0,0,0.3-2.2-1.6-2.6
		c-0.4-0.1-0.7-0.2-1.2-0.2l-1.4,0.7l-1,0.5l-0.7-0.3c-0.3,0-0.5,0-0.7,0c-0.2,0-0.4-0.1-0.6-0.1c-0.3-0.1-0.5-0.1-0.5-0.1
		s0.1,0,0.2,0c0.1,0,0.1,0,0.2,0c0.1,0,0.2,0,0.3,0c0,0,0,0,0,0c0.5,0,1.1-0.1,1.7-0.3c0,0,0,0,0,0c0.1,0,0.1,0,0.2,0c0,0,0,0,0,0
		c0,0,0.4-0.2,0.8-0.4c-0.5-0.8-1.1-1.1-2-1.1c-0.7,0-1.6,0.2-2.6,0.4c-0.3,0.1-0.7,0.1-1,0.2c-1.3,0.2-3.3,0.5-5.5,0.5
		c-3,0-6.4-0.4-9.2-1.8c-3.6-1.8-4.3-7.3-2.1-15.1c0.1-0.3,0.1-0.6,0.1-0.9C40.3,1.4,38.8,0,37,0H0c0,0,0.2,1.9,1.3,4.2l0.5,0.9
		c0.6,1.1,1.5,2.3,2.6,3.4l1,0.9c1.7,1.4,3.9,3.1,6.8,4.2h1.5h0.4c0.2,1,0.6,2.2,1.1,3.4l0.4,0.9c0.6,1.1,1.4,2.3,2.3,3.4l0.7,0.9
		c1.1,1.2,2.3,2.4,3.7,3.4l0.6,0.4l0.6,0.4c1.9,1.2,3.9,2.1,6.1,2.5l-17,5.9c-0.2,1.3-0.2,2.6,0,3.8l0.2,0.9
		c0.2,1.1,0.7,2.2,1.2,3.2l0.2,0.3l0.3,0.5c0.6,1,1.5,2,2.5,3l0.1,1c0.1,0.7,0.2,1.3,0.3,2c0.2,0.8,0.3,1.5,0.4,2.2
		c0.2,1.6-0.2,3.5-0.2,3.6l-0.2,0.9l0.9,0.2c0,0,2.5,0.5,4.6,2.4c0,0,0,0,0,0l0,0l0,0l0.2,0.2l0.2,0.2h0c2.4,2,5.2,3.4,8.3,4.1
		c0.1,0.6,0.2,1.2,0.3,1.3l0.2,0.6l0.7,0c0.7,0,7.1-0.4,9.3-2.1l1-0.7l-1.1-0.8c-3.1-2.1-5.5-4.9-5.6-4.9L36,55.9l-0.6,0.4
		c-0.7,0.5-1.4,1.1-1.9,1.7c-0.4-0.2-0.8-0.4-1.1-0.6c1-0.6,1.5-1.7,1.7-3.2c0-0.1,0-0.1,0-0.2l0.4,0.7l0.7-1l0.4,1.3l1.1-1.5l0.7-1
		l5.1-1.7l0.2,0.4l0.5,1.2l0.5-0.5l0.2,1.4l1-1.2l0.1,1.4l1.4-1.8l0.6-0.9c0.9,1.8,2.7,3,4.8,3c2,0,4.3-1.6,5.1-3.4
		c0.9-0.6,1.7-1.4,2.2-2.3c1.3-0.8,2.3-2.4,1.4-4.8C60.5,42.4,60.3,41.6,59.8,41.1 M36.6,5.1c-0.8,5.5-0.6,9.2,0,11.3
		c1,3.1,3.3,4.9,7.4,5.9c1.8,0.4,3.8,0.6,5.6,0.8l0.3,0c3.4,0.4,6.1,1.7,7.1,3.4c0.2,0.4,0.3,0.9,0.3,1.3c-1.1,0.8-2.2,1.8-3.4,2.7
		c-2.3,1.8-4.6,3.7-6.3,5.1c-0.6,0.5-1.2,0.9-1.6,1.3c3.5-3.2,4.2-5.3,4.2-5.3s-2.6-0.6-4.4-1.9c5.2,0.8,8-0.2,9.5-1.1
		c-1.8-0.5-4.2-0.2-4.2-0.2s1.2-1.2,2.7-1.3c-1.1-0.4-2.8-0.3-3.8-0.1c0.9-0.9,2.2-1.2,2.9-1.2c-1.5-0.8-3.6-0.6-4.8-0.4
		c1-0.7,2-1,2.8-1.1c-0.3-0.1-0.6-0.1-1-0.1l-0.3,0c-1.9-0.2-3.8-0.4-5.7-0.9c-4.4-1-7-3-8-6.4C34.8,13.3,35.7,8,36.6,5.1
		 M39.7,26.3c-1.3,0.4-2.5,0.8-3.7,1.2c-0.9-0.3-1.7-0.7-2.5-1.2L39.7,26.3z M32.3,25.4c-1.2-1-2.3-2.1-3.3-3.4h6.4
		c1.1,1.3,2.5,2.5,4.2,3.4v0L32.3,25.4z M33,17.8c0.4,1.1,1,2.3,1.8,3.4h-6.4c-0.8-1.1-1.4-2.2-2-3.4L33,17.8L33,17.8z M32.7,16.9
		l-6.8,0c-0.5-1.2-1-2.3-1.3-3.4h7.3C32.1,14.6,32.3,15.8,32.7,16.9 M31.7,9.3c-0.1,0.8-0.1,2,0.1,3.4h-7.4
		c-0.3-1.3-0.5-2.5-0.4-3.4L31.7,9.3z M31.5,8.5l-7.7,0c-1.3-0.9-2.1-2.1-2.5-3.4h8.4C29.9,6.4,30.5,7.6,31.5,8.5 M29.4,0.9
		c-0.1,0.6-0.2,1.9,0,3.4H21c-0.3-1.3-0.4-2.5-0.4-3.4H29.4z M2.1,3.8C1.5,2.6,1.2,1.6,1,0.9l18.7,0c0,0.7,0,1.5,0.2,2.5
		c0,0.3,0.1,0.6,0.2,0.9H2.3L2.1,3.8z M5,7.8C4.1,7,3.4,6.1,2.8,5.1h17.5c0.5,1.4,1.2,2.5,2.1,3.4l-16.7,0L5,7.8z M14.1,12.7h-0.6
		h-1.2c-2.3-0.9-4.2-2.3-5.6-3.4l16.4,0c-0.1,0.9,0.1,2.1,0.4,3.4h-8.7H14.1z M16,16.6c-0.5-1.1-0.8-2.1-1-3h8.8
		c0.3,1.1,0.7,2.2,1.3,3.4l-8.8,0L16,16.6z M19,21.2l-0.5-0.6c-0.7-0.9-1.4-1.9-1.9-2.8l8.8,0c0.6,1.1,1.2,2.3,2,3.4H19z M22.8,24.7
		c-1.1-0.8-2.1-1.7-3-2.7H28c0.9,1.2,1.9,2.4,3,3.4l-7.2,0L22.8,24.7z M25.3,26.3l6.8,0c0.9,0.7,1.7,1.2,2.7,1.6
		c-0.7,0.2-1.3,0.5-1.8,0.6l-3.1-0.6C28.3,27.6,26.8,27.1,25.3,26.3 M58.4,47.3c-0.5,1-1.2,1.8-2.2,2.4c-0.5,1.6-2.7,3.1-4.4,3.1
		c-2.3,0-4.1-1.7-4.5-4L45.6,51l-0.1-1.2c0,0,0,0,0,0l-1.1,1.3l-0.1-1c0,0,0-0.1,0-0.3c-0.2,0.2-0.4,0.5-0.4,0.5l-0.4,0.5l-0.3-0.6
		c0,0-0.1-0.2-0.1-0.5l-6.2,2L35.9,53l-0.2-0.9c0,0,0,0,0,0l-0.5,0.2l-0.6,0.9l-0.4-0.5c0,0,0,0,0,0l-0.9,0.3c0,0.2,0,0.4,0,0.6v0
		c0,0.2,0,0.5-0.1,0.7c-0.1,1.2-0.6,2.1-1.3,2.5c-0.5,0.3-1,0.4-1.4,0.4c0.9,0.7,2,1.4,3.3,2c0.5-0.7,1.2-1.4,2.1-2.1
		c0,0,2.6,2.9,5.8,5.1c0,0,0,0,0,0l0,0c-2.1,1.6-8.9,2-8.9,2c-0.1-0.2-0.3-1-0.3-1.8c-3.3-0.6-6.4-2.1-8.8-4.2c0,0,0,0,0,0l-0.2-0.2
		c0,0,0,0,0,0c-2.3-2.1-5-2.6-5-2.6s0.4-2,0.2-3.9c-0.1-0.7-0.2-1.5-0.4-2.2c-0.1-0.6-0.3-1.3-0.3-1.9l-0.2-1.3
		c-1-0.9-1.8-1.9-2.4-2.8l2.8-1c0.1-0.3,0.1-0.7,0.2-1l-3.5,1.2l-0.1-0.1c-0.5-1-0.9-2-1.1-3l0-0.1l11.5-3.9
		c0.1-0.2,0.2-0.4,0.3-0.6c0-0.1-0.1-0.2-0.1-0.3l-11.8,4.1c-0.1-0.9-0.1-1.9,0-2.9l13.5-4.7l-0.1,0.1c-0.3,0.2-1.5,1.3-0.5,3.6
		l0.1,0.2l-0.1,0.2c-0.3,0.7-1.2,2.9-0.1,5c0.2-0.6,0.4-1.2,0.8-1.8c1-1.9,2.2-3.2,2.3-3.2c0,0-1.2,3.4-0.6,6.5c0,0,0,0,0,0l0.7-0.7
		l0.1,1c0.1,1.1,0.6,2.1,1.1,2.6c2-0.4,3-2.4,3-2.4s0.1,1,0.1,1.6c3.1-2.7,3.9-10.2,3.9-10.3c0,0,0.4,6.7-0.3,9.4
		c2.9-1,4.8-1.9,6-2.8c0.8-0.6,1.5-1.1,2.1-1.6c0,0,0,0,0,0c0.3,0.6,0.5,1.2,0.5,1.9c0.1,0.8,0.1,2-0.2,3.2l1.4,2l4.1-1.5v-2.2
		l2.8-0.8l2,1.4c0.3-0.3,0.6-0.5,0.9-0.7c0.3-0.1,0.5-0.2,0.8-0.2c0.6,0,1.3,0.3,1.7,0.7c0.4,0.4,0.5,1,0.4,1.6
		C59.8,43.9,60.6,46.2,58.4,47.3">
  </path>
 </g>
</svg>