<?xml version="1.0" encoding="UTF-8"?><svg id="a" xmlns="http://www.w3.org/2000/svg" viewBox="0 0 505.3 768"><defs><style>.b{fill:#27617a;fill-rule:evenodd;}</style></defs><polygon class="b" points="488.07 392.11 252.65 617.01 17.23 392.11 17.23 531.35 252.65 756.26 488.07 531.35 488.07 392.11 488.07 392.11"/><polygon class="b" points="314.84 11.74 252.65 45.58 190.46 11.74 190.46 102.12 252.65 135.95 314.84 102.12 314.84 11.74 314.84 11.74"/><polygon class="b" points="314.61 135.95 252.65 169.67 190.69 135.95 54.24 135.95 54.24 262.51 189.92 262.51 190.23 516.43 252.65 576.06 315.27 516.24 314.95 262.51 451.06 262.51 451.06 135.95 314.61 135.95 314.61 135.95"/></svg>