<?xml version="1.0" encoding="UTF-8"?><svg id="a" xmlns="http://www.w3.org/2000/svg" viewBox="0 0 1366 768"><defs><style>.b,.c{fill:#fff;}.c{fill-rule:evenodd;}</style></defs><polygon class="b" points="562.85 241.17 618.51 241.17 618.51 206.64 467.76 206.64 467.76 241.17 522.65 241.17 522.65 387.02 562.85 387.02 562.85 241.17 562.85 241.17"/><path class="b" d="M709.42,301.73c0-43.03-20.1-53.86-60.3-53.86h-2.06c-36.33,0-54.37,13.4-60.56,42.26h35.82c3.09-11.08,10.57-15.2,25.25-15.2,8.25,0,14.43,1.29,18.81,4.12,4.38,2.83,6.7,9.02,6.7,19.07v4.12l-44.58,2.32c-32.98,1.8-45.87,15.72-45.87,41.74v1.29c0,29.63,19.33,42,48.44,42,25,0,35.3-7.73,41.23-19.07h1.29v16.49h35.82v-85.29h0ZM619.23,345.02c0-11.59,5.41-16.23,19.07-17.01l34.79-1.8v10.57c0,17.27-8.5,27.83-30.41,27.83-13.66,0-23.45-5.41-23.45-18.04v-1.55h0Z"/><path class="b" d="M785.09,389.6c39.17,0,62.1-12.11,62.1-44.06v-2.06c0-22.42-6.96-37.88-44.06-38.91l-21.39-1.03c-16.49-.77-21.65-4.38-21.65-13.92v-1.29c0-10.05,8.76-13.92,23.45-13.92,13.14,0,21.13,2.06,24.99,13.14h37.11c-6.18-30.15-26.8-39.68-60.81-39.68h-2.32c-36.33,0-58.75,13.14-58.75,42.78v1.8c0,22.42,6.7,37.88,44.06,38.91l21.39,1.03c16.49.77,21.65,4.38,21.65,13.92v1.55c0,11.59-7.73,15.2-25.51,15.2-11.34,0-23.96-2.58-27.31-13.14h-36.85c6.18,28.09,25.25,39.68,62.62,39.68h1.29Z"/><polygon class="b" points="892.59 351.2 909.59 332.39 911.14 332.39 945.15 387.02 988.45 387.02 935.36 305.08 986.12 250.45 942.58 250.45 894.13 306.88 892.59 306.88 892.59 206.64 856.25 206.64 856.25 387.02 892.59 387.02 892.59 351.2 892.59 351.2"/><path class="b" d="M1049.78,206.64v28.09h36.33v-28.09h-36.33ZM1049.78,250.45v136.57h36.33v-136.57h-36.33Z"/><path class="b" d="M1231.45,297.35c0-37.62-19.07-49.47-48.7-49.47-22.42,0-33.76,8.76-38.91,24.48h-1.55v-21.9h-36.33v136.57h36.33v-75.24c0-25,9.02-32.21,27.31-32.21,8.24,0,14.43,1.8,18.81,5.15,4.38,3.35,6.7,10.82,6.7,22.42v79.88h36.33v-89.67h0Z"/><path class="b" d="M539.12,598.23c38.14,0,66.48-11.59,66.48-54.11v-2.58c0-13.66-3.61-24.48-10.82-32.47-7.22-7.99-20.1-12.63-38.91-13.66l-25.25-1.29c-31.18-2.06-38.65-10.31-38.65-31.18v-1.03c0-22.93,13.66-31.95,42.78-31.95,25,0,42.26,5.93,47.16,29.38h20.61c-4.12-37.36-34.01-46.64-65.97-46.64h-3.09c-38.39,0-61.84,14.17-61.84,51.02v1.55c0,27.57,12.63,43.81,49.73,46.13l25.25,1.29c31.18,2.06,38.65,10.05,38.65,31.18v2.32c0,26.03-16.49,34.79-47.67,34.79-20.61,0-43.81-3.61-48.96-28.6h-20.61c5.15,37.11,36.59,45.87,68.54,45.87h2.58Z"/><path class="b" d="M708.27,559.32c-6.7,20.1-20.87,22.93-36.33,22.93-20.36,0-38.14-5.67-38.14-51.02h95.09v-9.02c0-51.02-21.65-65.71-55.92-65.71h-1.8c-34.27,0-56.43,15.72-56.43,66.48v8.76c0,50.76,22.16,66.48,56.43,66.48h1.8c28.86,0,47.41-10.82,54.37-38.91h-19.07ZM671.68,471.71c23.96,0,38.14,10.82,38.14,43.03v2.06h-75.76c1.55-40.2,17.78-45.1,37.62-45.1h0Z"/><path class="b" d="M800.63,459.08c-22.68,0-35.04,7.47-39.94,20.61h-1.03v-20.61h-18.81v136.57h18.81v-79.11c0-33.76,15.72-39.94,39.17-39.94h11.34v-17.52h-9.53Z"/><polygon class="b" points="942.1 459.08 923.03 459.08 879.99 577.87 878.96 577.87 836.19 459.08 815.83 459.08 865.82 595.65 891.85 595.65 942.1 459.08 942.1 459.08"/><path class="b" d="M951.04,415.28v19.84h18.81v-19.84h-18.81ZM951.04,459.08v136.57h18.81v-136.57h-18.81Z"/><path class="b" d="M1041.85,598.23c28.09,0,45.61-12.63,51.54-41.49h-19.07c-5.15,21.13-19.07,24.74-33.5,24.74-19.84,0-37.37-5.93-37.37-51.54v-5.15c0-45.61,17.52-51.54,37.37-51.54,14.43,0,28.34,3.61,33.5,24.74h19.07c-5.93-28.86-23.45-41.49-51.54-41.49h-1.8c-33.76,0-55.66,15.72-55.66,65.97v9.79c0,50.25,21.9,65.97,55.66,65.97h1.8Z"/><path class="b" d="M1198.7,559.32c-6.7,20.1-20.87,22.93-36.33,22.93-20.36,0-38.14-5.67-38.14-51.02h95.08v-9.02c0-51.02-21.64-65.71-55.92-65.71h-1.8c-34.27,0-56.43,15.72-56.43,66.48v8.76c0,50.76,22.16,66.48,56.43,66.48h1.8c28.86,0,47.41-10.82,54.37-38.91h-19.07ZM1162.11,471.71c23.96,0,38.14,10.82,38.14,43.03v2.06h-75.76c1.55-40.2,17.78-45.1,37.62-45.1h0Z"/><path class="b" d="M1283.84,598.23c31.7,0,54.11-10.31,54.11-41.49v-2.84c0-19.84-7.21-32.98-37.88-35.04l-23.96-1.55c-19.84-1.29-26.54-6.44-26.54-21.13v-1.29c0-16.23,12.63-23.19,32.47-23.19,18.29,0,29.37,4.38,34.79,21.65h18.81c-5.93-27.83-24.48-36.85-52.57-36.85h-2.58c-30.66,0-49.73,13.14-49.73,39.17v2.58c0,18.81,7.47,33.24,37.62,34.79l24.22,1.55c19.84,1.29,26.28,6.7,26.28,21.13v1.55c0,20.61-12.88,25.77-35.3,25.77-15.46,0-32.98-4.38-36.59-21.9h-18.81c4.9,27.57,26.03,37.11,54.11,37.11h1.55Z"/><polygon class="b" points="998.78 278.03 971.21 308.55 997.31 345.93 1039.44 345.93 1013.35 310.1 1040.92 278.03 998.78 278.03 998.78 278.03"/><polygon class="c" points="364.72 389.8 196.38 550.61 28.05 389.8 28.05 489.36 196.38 650.17 364.72 489.36 364.72 389.8 364.72 389.8"/><polygon class="c" points="240.85 117.83 196.38 142.02 151.92 117.83 151.92 182.45 196.38 206.64 240.85 182.45 240.85 117.83 240.85 117.83"/><polygon class="c" points="240.68 206.64 196.38 230.75 152.08 206.64 54.52 206.64 54.52 297.13 151.53 297.13 151.75 478.69 196.38 521.33 241.15 478.55 240.93 297.13 338.25 297.13 338.25 206.64 240.68 206.64 240.68 206.64"/></svg>