<svg xmlns="http://www.w3.org/2000/svg" width="1508" height="920"><path fill="#e61919" d="M916.1 465.5c191.2-37 408.8-218.3 410.8-458.2H953c7.5 7.3 14.5 15.1 20.7 23.5q9.45 12.45 16.8 26.4c4.8 9.2 9 18.8 12.3 28.7s5.9 20.1 7.6 30.4c34.9 235.7-193.8 336.8-269.1 360 125.6 25.6 346.8 134.2 408.8 441.2h357.2c-169.7-395.3-591.2-452-591.2-452m-335.3 23.6C928.2 410.2 910.3 221 907 204 893.3 59.7 729.2-25.1 523.3 7.7c-239.7 38.2-377.4 291.6-391.4 323q-19.3 39.1-35.6 79.5-16.4 40.4-29.6 82-13.3 41.5-23.4 83.9-10.2 42.4-17.1 85.5c-4.7 28.7 48.9-137.2 250.5-229.1q-.2-22.1 1.7-44.2 2-22 6.1-43.7t10.3-42.9 14.5-41.7c36.9-84.1 126.6-157.4 213.7-156.8 101.8 0 159.6 81.5 135.1 160.7C636.2 334 573.6 405 368.4 460.3q-16 4.5-31.8 9.7t-31.4 11q-15.5 5.9-30.8 12.4t-30.3 13.7C86.8 590.2-10.4 760.1 1.7 919.5h312.9c-65.3-132.9-55.5-259.2 1.6-329.3q5.6-6.8 11.7-13.2t12.7-12.3 13.6-11.2q7.1-5.3 14.5-10.1c7.8-4.7 16-8.8 24.4-12.3 8.5-3.5 17.1-6.3 26-8.5s17.9-3.7 27-4.4q13.65-1.2 27.3-.3h2q9.3 1.1 18.4 3.2 9.1 2.2 17.9 5.4 8.9 3.1 17.3 7.3 8.3 4.2 16.2 9.3C672.4 630.2 704.4 802 704.4 919.8h241.1c0-202.9-111.2-377.7-366.4-430.7m337-23.6c191.2-37 408.8-218.3 410.8-458.2H953c7.5 7.3 14.5 15.1 20.7 23.5q9.45 12.45 16.8 26.4c4.8 9.2 9 18.8 12.3 28.7s5.9 20.1 7.6 30.4c34.9 235.7-193.8 336.8-269.1 360 125.6 25.6 346.8 134.2 408.8 441.2h357.2c-169.7-395.3-591.2-452-591.2-452m-335.3 23.6C928.2 410.2 910.3 221 907 204 893.3 59.7 729.2-25.1 523.3 7.7c-239.7 38.2-377.4 291.6-391.4 323q-19.3 39.1-35.6 79.5-16.4 40.4-29.6 82-13.3 41.5-23.4 83.9-10.2 42.4-17.1 85.5c-4.7 28.7 48.9-137.2 250.5-229.1q-.2-22.1 1.7-44.2 2-22 6.1-43.7t10.3-42.9 14.5-41.7c36.9-84.1 126.6-157.4 213.7-156.8 101.8 0 159.6 81.5 135.1 160.7C636.2 334 573.6 405 368.4 460.3q-16 4.5-31.8 9.7t-31.4 11q-15.5 5.9-30.8 12.4t-30.3 13.7C86.8 590.2-10.4 760.1 1.7 919.5h312.9c-65.3-132.9-55.5-259.2 1.6-329.3q5.6-6.8 11.7-13.2t12.7-12.3 13.6-11.2q7.1-5.3 14.5-10.1c7.8-4.7 16-8.8 24.4-12.3 8.5-3.5 17.1-6.3 26-8.5s17.9-3.7 27-4.4q13.65-1.2 27.3-.3h2q9.3 1.1 18.4 3.2 9.1 2.2 17.9 5.4 8.9 3.1 17.3 7.3 8.3 4.2 16.2 9.3C672.4 630.2 704.4 802 704.4 919.8h241.1c0-202.9-111.2-377.7-366.4-430.7"/></svg>